<?xml version="1.0" standalone="no"?><!DOCTYPE svg PUBLIC "-//W3C//DTD SVG 1.1//EN" "http://www.w3.org/Graphics/SVG/1.1/DTD/svg11.dtd"><svg t="1554885801638" class="icon" style="" viewBox="0 0 1449 1024" version="1.1" xmlns="http://www.w3.org/2000/svg" p-id="2052" xmlns:xlink="http://www.w3.org/1999/xlink" width="283.0078125" height="200"><defs><style type="text/css"></style></defs><path d="M628.53956 523.438938c-80.674618-40.079288-134.687049-128.494541-134.687049-232.391063 0-141.395599 103.896523-255.956996 231.875021-255.956996s231.875021 114.561398 231.875021 255.956996c0 103.724509-53.840417 191.967747-134.171006 232.219049 198.848312 47.819923 349.360658 238.239543 359.165463 469.254494l-913.394927 0.688056C281.759113 764.94675 431.583403 572.118932 628.53956 523.438938L628.53956 523.438938z" p-id="2053"></path><path d="M918.55535 64.505291c53.496388 57.108685 86.695112 137.26726 86.695112 225.854527 0 81.878717-28.382328 156.360826-74.826138 212.265412l0 0c144.491853 68.63363 253.720813 210.545271 289.327734 383.419452l0 0 206.588947-0.172014c-8.77272-205.384848-142.599698-374.646733-319.258189-417.134218 71.385856-35.778935 119.205779-114.217369 119.205779-206.416933 0-125.742315-92.199563-227.574668-206.072904-227.574668-37.843104 0-73.450025 11.352931-103.896523 30.96254" p-id="2054"></path><path d="M524.299009 65.881404c-30.446498-19.781623-66.053418-30.96254-103.896523-30.96254-113.873341 0-206.072904 101.832353-206.072904 227.574668 0 92.199563 47.819923 170.637998 119.205779 206.416933C156.704855 511.225937 22.877877 680.487821 14.105157 885.872669l206.588947 0.172014 0 0c35.606921-172.874181 144.835881-314.785822 289.327734-383.419452l0 0c-46.44381-55.904586-74.826138-130.55871-74.826138-212.265412 0-88.587267 33.198723-168.745842 86.695112-225.854527" p-id="2055"></path></svg>