<?xml version="1.0" standalone="no"?><!DOCTYPE svg PUBLIC "-//W3C//DTD SVG 1.1//EN" "http://www.w3.org/Graphics/SVG/1.1/DTD/svg11.dtd"><svg t="1557716751634" class="icon" style="" viewBox="0 0 1024 1024" version="1.1" xmlns="http://www.w3.org/2000/svg" p-id="4478" xmlns:xlink="http://www.w3.org/1999/xlink" width="200" height="200"><defs><style type="text/css"></style></defs><path d="M896.592 212.838h-33.518c16.995-28.82 24.453-56.309 22.074-81.806-1.98-21.343-12.092-51.86-49.157-76.183-30.73-20.212-70.243-25.171-114.078-14.222-71.093 17.852-155.228 79.213-210.557 153.373-55.353-74.154-139.425-135.521-210.514-153.373-43.876-11.024-83.423-6.027-114.148 14.222-37.029 24.323-47.145 54.841-49.119 76.183-2.383 25.497 5.006 52.986 22.071 81.806h-33.52c-50.753 0-92.058 41.337-92.058 92.13v118.663c0 40.174 26.502 75.683 64.844 87.607-3.645 10.082-5.553 20.512-5.553 31.069v356.003c0 50.756 41.353 92.105 92.109 92.105h651.886c50.756 0 92.042-41.349 92.042-92.105v-356.003c0-10.63-1.842-21.087-5.484-31.105 38.283-11.993 64.722-47.502 64.722-87.578v-118.631c0-50.781-41.286-92.155-92.042-92.155M837.353 924.818h-293.223v-409.044h293.223c14.615 0 26.465 11.917 26.465 26.533v356.003c0 14.617-11.85 26.508-26.465 26.508M580.238 212.838c46.634-53.791 107.844-96.059 157.545-108.532 25.815-6.471 46.94-4.698 62.236 5.383 16.246 10.682 19.145 20.201 19.794 27.396 2.586 26.358-25.691 61.905-39.038 75.753h-200.538zM923.024 304.993v118.639c0 14.609-11.815 26.495-26.432 26.495h-352.462v-171.643h352.462c14.617 0 26.432 11.905 26.432 26.509M478.556 515.775v409.044h-293.089c-14.651 0-26.502-11.891-26.502-26.508v-356.003c0-14.615 11.854-26.533 26.502-26.533h293.089zM202.909 137.086c0.647-7.196 3.577-16.715 19.757-27.396 15.19-10.081 36.311-11.942 62.27-5.383 49.425 12.404 110.572 54.678 157.308 108.532h-200.365c-11.958-12.106-41.593-48.757-38.97-75.753M99.627 304.993c0-14.603 11.855-26.515 26.499-26.515h352.427v171.648h-352.427c-14.647 0-26.499-11.886-26.499-26.495v-118.639z" p-id="4479"></path></svg>