<?xml version="1.0" standalone="no"?><!DOCTYPE svg PUBLIC "-//W3C//DTD SVG 1.1//EN" "http://www.w3.org/Graphics/SVG/1.1/DTD/svg11.dtd"><svg t="1555398779445" class="icon" style="" viewBox="0 0 1024 1024" version="1.1" xmlns="http://www.w3.org/2000/svg" p-id="5962" xmlns:xlink="http://www.w3.org/1999/xlink" width="200" height="200"><defs><style type="text/css"></style></defs><path d="M64 896c0 35.4 28.6 64 64 64h320V640H64v256z m896-576h-84.2c12.4-24.2 20.2-51 20.2-80 0-97-79-176-176-176-83.2 0-137 42.6-206 136.6-69-94-122.8-136.6-206-136.6-97 0-176 79-176 176 0 29 7.6 55.8 20.2 80H64c-35.4 0-64 28.6-64 64v160c0 17.6 14.4 32 32 32h960c17.6 0 32-14.4 32-32v-160c0-35.4-28.6-64-64-64z m-652.2 0c-44.2 0-80-35.8-80-80s35.8-80 80-80c39.8 0 69.2 6.6 172.2 160h-172.2z m412.2 0h-172.2c102.8-153 131.4-160 172.2-160 44.2 0 80 35.8 80 80s-35.8 80-80 80z m-144 640h320c35.4 0 64-28.6 64-64V640H576v320z" p-id="5963"></path></svg>