<?xml version="1.0" standalone="no"?><!DOCTYPE svg PUBLIC "-//W3C//DTD SVG 1.1//EN" "http://www.w3.org/Graphics/SVG/1.1/DTD/svg11.dtd"><svg t="1555071203362" class="icon" style="" viewBox="0 0 1109 1024" version="1.1" xmlns="http://www.w3.org/2000/svg" p-id="1994" xmlns:xlink="http://www.w3.org/1999/xlink" width="216.6015625" height="200"><defs><style type="text/css"></style></defs><path d="M122.708613 509.221483v428.982097h900.862405v-815.065985h-557.676727a42.89821 42.89821 0 0 1-42.898209-42.89821 42.89821 42.89821 0 0 1 42.898209-42.898209h600.574937a42.89821 42.89821 0 0 1 42.89821 42.898209v900.862405a42.89821 42.89821 0 0 1-42.89821 42.89821h-986.658824a42.89821 42.89821 0 0 1-42.89821-42.89821v-471.880307a42.89821 42.89821 0 0 1 42.89821-42.89821 42.89821 42.89821 0 0 1 42.898209 42.89821z" p-id="1995"></path><path d="M551.690711 595.017902h-300.287468a42.89821 42.89821 0 0 1 0-85.796419h197.331765L10.315304 70.801779A42.89821 42.89821 0 0 1 70.80178 10.315304l437.561739 437.561739V251.832224a42.89821 42.89821 0 0 1 85.79642 0v300.287469a42.89821 42.89821 0 0 1-42.469228 42.898209z" p-id="1996"></path></svg>