<?xml version="1.0" standalone="no"?><!DOCTYPE svg PUBLIC "-//W3C//DTD SVG 1.1//EN" "http://www.w3.org/Graphics/SVG/1.1/DTD/svg11.dtd"><svg t="1555398025727" class="icon" style="" viewBox="0 0 1039 1024" version="1.1" xmlns="http://www.w3.org/2000/svg" p-id="1979" xmlns:xlink="http://www.w3.org/1999/xlink" width="202.9296875" height="200"><defs><style type="text/css"></style></defs><path d="M970.923723 174.469433h-68.272574V940.575434h-318.590577c0 45.500281 30.348289 83.424566 68.272574 83.424566h318.590577c37.924285 0 68.272574-37.924285 68.272573-83.424566V257.893999c0-45.500281-30.348289-83.424566-68.272573-83.424566z m0 0" p-id="1980"></path><path d="M781.302297 0H68.272574C30.348289 0 0 37.924285 0 83.424566V940.575434c0 45.500281 30.348289 83.424566 68.272574 83.424566h713.029723c37.924285 0 68.272574-37.924285 68.272574-83.424566V91.044867C841.777355 37.924285 811.650586 0 781.302297 0zM136.545148 219.969714H394.306235v257.893999H136.545148zM652.333146 811.650586H136.545148v-83.46887h515.787998z m0-166.893436H136.545148V561.332583h515.787998z m0-174.469433h-197.197422V386.863151h189.621426z m0-166.893437h-197.197422V219.969714h189.621426z m0 0" p-id="1981"></path></svg>