<?xml version="1.0" standalone="no"?><!DOCTYPE svg PUBLIC "-//W3C//DTD SVG 1.1//EN" "http://www.w3.org/Graphics/SVG/1.1/DTD/svg11.dtd"><svg t="1554961134082" class="icon" style="" viewBox="0 0 1024 1024" version="1.1" xmlns="http://www.w3.org/2000/svg" p-id="1985" xmlns:xlink="http://www.w3.org/1999/xlink" width="200" height="200"><defs><style type="text/css"></style></defs><path d="M968.192 334.336c-23.04-54.272-55.808-102.912-97.28-144.384-41.984-41.984-90.624-74.752-144.384-97.28-56.32-23.552-115.712-35.84-177.152-35.84s-120.832 11.776-177.152 35.84c-54.272 23.04-102.912 55.808-144.384 97.28-41.984 41.984-74.752 90.624-97.28 144.384-9.216 22.016-16.896 45.056-23.04 68.608l-22.528-51.2c-5.632-12.288-17.92-20.48-31.232-20.48-4.608 0-9.728 1.024-13.824 3.072-8.192 3.584-14.848 10.24-17.92 18.944-3.072 8.704-3.072 17.92 0.512 26.112l69.632 158.72c0.512 1.024 1.024 1.536 1.024 2.56v0.512c0.512 1.024 0.512 1.536 1.024 2.048 0.512 0.512 0.512 1.024 1.024 1.536l0.512 0.512 1.024 1.024c0.512 0.512 1.024 1.024 1.024 1.536l0.512 0.512 1.024 1.024 1.024 1.024c0.512 0 0.512 0.512 1.024 0.512 0.512 0.512 1.024 0.512 1.024 1.024 0 0 0.512 0 0.512 0.512 0.512 0.512 1.024 1.024 2.048 1.536 0.512 0.512 1.024 1.024 2.048 1.024 1.536 1.024 3.072 1.536 4.096 2.048 0.512 0 1.024 0.512 2.048 0.512h0.512c0.512 0 1.024 0.512 2.048 0.512h0.512c0.512 0 1.536 0.512 2.048 0.512h8.192c1.024 0 2.048 0 2.56-0.512h0.512c1.024 0 2.048-0.512 2.56-0.512h0.512c0.512 0 1.536-0.512 2.048-0.512h0.512c0.512 0 1.024-0.512 2.048-1.024h0.512c0.512 0 0.512-0.512 1.024-0.512 1.024-0.512 1.536-1.024 2.048-1.024h0.512c2.048-1.024 3.584-2.56 5.12-4.096l130.56-114.176c14.336-12.288 15.872-34.304 3.072-48.64-6.656-7.168-15.872-11.776-25.6-11.776-8.192 0-16.384 3.072-22.528 8.704L169.472 438.272c34.816-179.712 194.56-313.344 379.392-313.344 212.992 0 386.56 173.568 386.56 386.56s-173.568 386.56-386.56 386.56c-92.16 0-181.248-32.768-251.392-93.184-6.144-5.12-14.336-8.192-22.528-8.192-10.24 0-19.456 4.096-26.112 11.776-12.288 14.336-10.752 35.84 3.584 48.128 82.432 70.656 187.392 109.568 295.936 109.568 61.44 0 120.832-11.776 177.152-35.84 54.272-23.04 102.912-55.808 144.384-97.28 41.984-41.984 74.752-90.624 97.28-144.384 23.552-56.32 35.84-115.712 35.84-177.152 1.024-61.44-10.752-120.832-34.816-177.152m-280.576 7.68c-6.656-6.656-15.36-10.24-24.064-10.24-9.216 0-17.92 3.584-24.064 10.24l-90.112 90.112-90.624-90.112c-6.656-6.656-15.36-10.24-24.064-10.24-9.216 0-17.92 3.584-24.064 10.24-13.312 13.312-13.312 35.328 0 48.64l55.808 55.808H411.648c-3.584 0-6.656 3.072-6.656 6.656v55.296c0 3.584 3.072 6.656 6.656 6.656h102.912v46.08H411.648c-3.584 0-6.656 3.072-6.656 6.656v55.296c0 3.584 3.072 6.656 6.656 6.656h102.912v102.4a34.304 34.304 0 0 0 68.608 0v-102.912H686.08c3.584 0 6.656-3.072 6.656-6.656v-55.296c0-3.584-3.072-6.656-6.656-6.656h-102.912v-46.08H686.08c3.584 0 6.656-3.072 6.656-6.656V453.12c0-3.584-3.072-6.656-6.656-6.656h-54.784l55.808-55.808c13.824-13.824 13.824-35.328 0.512-48.64z m0 0" p-id="1986"></path></svg>