<?xml version="1.0" standalone="no"?><!DOCTYPE svg PUBLIC "-//W3C//DTD SVG 1.1//EN" "http://www.w3.org/Graphics/SVG/1.1/DTD/svg11.dtd"><svg t="1560261919467" class="icon" style="" viewBox="0 0 1024 1024" version="1.1" xmlns="http://www.w3.org/2000/svg" p-id="1760" xmlns:xlink="http://www.w3.org/1999/xlink" width="200" height="200"><defs><style type="text/css"></style></defs><path d="M907.434667 163.072V85.504l0.170666-3.242667a32.256 32.256 0 0 1 20.693334-26.794666 38.058667 38.058667 0 0 1 9.514666-1.92h3.242667a37.76 37.76 0 0 1 9.472 1.92 32.213333 32.213333 0 0 1 20.906667 30.037333v852.949333a36.352 36.352 0 0 1-2.432 12.245334 32.341333 32.341333 0 0 1-20.266667 18.389333 36.309333 36.309333 0 0 1-9.301333 1.365333H84.522667c-2.858667-0.128-3.626667-0.042667-6.442667-0.64a32.469333 32.469333 0 0 1-22.272-17.237333 32.298667 32.298667 0 0 1 13.184-42.069333 34.602667 34.602667 0 0 1 15.530667-4.053334h78.122666l52.608-108.288a100.693333 100.693333 0 0 1-28.586666-54.272 102.101333 102.101333 0 0 1-0.426667-33.408 102.656 102.656 0 0 1 49.877333-72.746666 104.576 104.576 0 0 1 53.248-13.44 101.418667 101.418667 0 0 1 69.845334 30.378666l116.565333-53.930666a102.357333 102.357333 0 0 1 51.029333-89.6 103.765333 103.765333 0 0 1 56.96-13.269334l54.784-113.237333a101.973333 101.973333 0 0 1-34.432-59.605333 104.106667 104.106667 0 0 1-0.768-30.890667 102.570667 102.570667 0 0 1 50.261334-75.264 104.192 104.192 0 0 1 53.205333-13.44 100.693333 100.693333 0 0 1 64.298667 25.173333l136.32-67.541333z m0 71.424l-103.765334 51.413333 0.64 3.2a101.973333 101.973333 0 0 1-58.24 110.634667 101.418667 101.418667 0 0 1-48 8.789333l-54.784 113.365334a102.485333 102.485333 0 0 1 35.285334 67.072c1.109333 11.093333 0.426667 22.4-2.090667 33.28a102.741333 102.741333 0 0 1-57.216 69.76 102.186667 102.186667 0 0 1-79.146667 1.92 102.229333 102.229333 0 0 1-43.178666-32.469334L387.456 712.106667l0.426667 3.456c1.109333 11.136 0.426667 22.4-2.090667 33.322666a102.613333 102.613333 0 0 1-57.216 69.717334 101.205333 101.205333 0 0 1-56.021333 8.021333l-38.784 79.829333h673.664V234.496zM285.098667 662.698667c-9.472 0.341333-18.688 2.56-27.136 6.869333a63.402667 63.402667 0 0 0 5.589333 115.242667 63.445333 63.445333 0 0 0 85.930667-50.816 63.189333 63.189333 0 0 0-64.384-71.296z m290.688-126.634667a65.194667 65.194667 0 0 0-27.136 6.912 63.914667 63.914667 0 0 0-33.237334 43.605333 63.786667 63.786667 0 0 0 17.28 57.472 63.445333 63.445333 0 0 0 107.008-33.536 63.829333 63.829333 0 0 0-30.848-66.090666 64.682667 64.682667 0 0 0-33.066666-8.362667z m126.762666-292.224c-9.429333 0.341333-18.645333 2.56-27.093333 6.869333a64 64 0 0 0-32.896 42.069334c-1.664 7.296-2.048 14.933333-1.109333 22.357333a63.061333 63.061333 0 0 0 18.048 36.650667 63.061333 63.061333 0 0 0 87.253333 2.090666 62.762667 62.762667 0 0 0 19.712-35.584 63.573333 63.573333 0 0 0 0.512-19.285333 63.445333 63.445333 0 0 0-64.426667-55.168z" p-id="1761"></path></svg>