<?xml version="1.0" standalone="no"?><!DOCTYPE svg PUBLIC "-//W3C//DTD SVG 1.1//EN" "http://www.w3.org/Graphics/SVG/1.1/DTD/svg11.dtd"><svg t="1555398282068" class="icon" style="" viewBox="0 0 1024 1024" version="1.1" xmlns="http://www.w3.org/2000/svg" p-id="3716" xmlns:xlink="http://www.w3.org/1999/xlink" width="200" height="200"><defs><style type="text/css"></style></defs><path d="M887.68 508.928a64 64 0 0 1-22.08 79.168L571.52 789.76a64 64 0 0 1-72.32 0L204.928 588.16a64 64 0 0 1-22.144-79.168l316.224 216.832a64 64 0 0 0 72.384 0l316.288-216.832z m0 128a64 64 0 0 1-22.08 79.168L571.52 917.76a64 64 0 0 1-72.32 0L204.928 716.16a64 64 0 0 1-22.144-79.168l316.224 216.832a64 64 0 0 0 72.384 0l316.288-216.832zM571.52 152.832l294.08 201.664a64 64 0 0 1 0 105.6L571.52 661.76a64 64 0 0 1-72.32 0L204.928 460.16a64 64 0 0 1 0-105.6l294.08-201.664a64 64 0 0 1 72.384 0z" p-id="3717"></path></svg>