<?xml version="1.0" standalone="no"?><!DOCTYPE svg PUBLIC "-//W3C//DTD SVG 1.1//EN" "http://www.w3.org/Graphics/SVG/1.1/DTD/svg11.dtd"><svg t="1555398392339" class="icon" style="" viewBox="0 0 1024 1024" version="1.1" xmlns="http://www.w3.org/2000/svg" p-id="5219" xmlns:xlink="http://www.w3.org/1999/xlink" width="200" height="200"><defs><style type="text/css"></style></defs><path d="M896 0H128C57.6 0 0 57.6 0 128v256c0 70.4 57.6 128 128 128v448c0 35.3472 28.6528 64 64 64h640c35.3472 0 64-28.6528 64-64V512c70.4 0 128-57.6 128-128V128c0-70.4-57.6-128-128-128zM672 640c17.672533 0 32 14.327467 32 32s-14.327467 32-32 32h-96v64c0 35.3472-28.6528 64-64 64s-64-28.6528-64-64v-64h-96c-17.672533 0-32-14.327467-32-32s14.327467-32 32-32h96v-64h-96c-17.672533 0-32-14.327467-32-32s14.327467-32 32-32h128a31.899733 31.899733 0 0 1-22.628267-9.371733L352 397.2544c-12.497067-12.497067-12.497067-32.757333 0-45.2544s32.757333-12.497067 45.2544 0l105.371733 105.371733c12.497067 12.497067 12.497067 32.757333 0 45.2544A31.8848 31.8848 0 0 1 480 512h192c17.672533 0 32 14.327467 32 32s-14.327467 32-32 32h-96v64h96z m-150.628267-201.371733l85.333334-85.333334c12.497067-12.497067 32.757333-12.497067 45.2544 0 12.497067 12.497067 12.497067 32.757333 0 45.2544l-85.333334 85.333334c-12.497067 12.497067-32.757333 12.497067-45.2544 0-12.494933-12.497067-12.494933-32.759467 0-45.2544zM960 288c0 17.672533-14.327467 32-32 32h-32V192c0-35.3472-28.6528-64-64-64H192c-35.3472 0-64 28.6528-64 64v128H96c-17.672533 0-32-14.327467-32-32V96c0-17.672533 14.327467-32 32-32h832c17.672533 0 32 14.327467 32 32v192z" fill="" p-id="5220"></path></svg>